#tb 0: 1/25
0,          2,          2,        1,   518400, 0x80dffda2
0,          4,          4,        1,   518400, 0x9450183b
0,          6,          6,        1,   518400, 0x85d429a7
0,          7,          7,        1,   518400, 0xe1f3b686
0,          9,          9,        1,   518400, 0x2180c761
0,         11,         11,        1,   518400, 0x30269c7c
0,         12,         12,        1,   518400, 0xe9aa575a
0,         13,         13,        1,   518400, 0x7b815a0a
